<?xml version="1.0" encoding="utf-8"?>
<!-- Generator: Adobe Illustrator 18.0.0, SVG Export Plug-In . SVG Version: 6.00 Build 0)  -->
<!DOCTYPE svg PUBLIC "-//W3C//DTD SVG 1.1//EN" "http://www.w3.org/Graphics/SVG/1.1/DTD/svg11.dtd">
<svg version="1.1" id="Layer_1" xmlns="http://www.w3.org/2000/svg" xmlns:xlink="http://www.w3.org/1999/xlink" x="0px" y="0px"
	 viewBox="0 0 1400 980" enable-background="new 0 0 1400 980" xml:space="preserve">
<g>
	<g>
		<g>
			<g>
				<linearGradient id="SVGID_1_" gradientUnits="userSpaceOnUse" x1="700" y1="509.084" x2="700" y2="6.4517">
					<stop  offset="3.225806e-002" style="stop-color:#FDBB40"/>
					<stop  offset="0.457" style="stop-color:#F36E27"/>
					<stop  offset="0.5182" style="stop-color:#EC6C28"/>
					<stop  offset="0.5944" style="stop-color:#E0682D"/>
					<stop  offset="0.6786" style="stop-color:#CD6133"/>
					<stop  offset="0.7684" style="stop-color:#B15638"/>
					<stop  offset="0.8629" style="stop-color:#8F4636"/>
					<stop  offset="0.9597" style="stop-color:#68302D"/>
					<stop  offset="1" style="stop-color:#542324"/>
				</linearGradient>
				<rect fill="url(#SVGID_1_)" width="1400" height="980"/>
			</g>
		</g>
	</g>
	<circle fill="#FFCD31" cx="230.3" cy="420" r="118.5"/>
	<g opacity="0.1">
		<path fill="#EBE7E8" d="M534,450.5c-178-1.1-356,0-534,3.3v21.1c408.1,0.1,816.2,0.2,1224.2,0.4c58.6,0,117.4,0,175.8-5.6v-35.5
			C1112.4,459.8,822.8,452.2,534,450.5z"/>
		<path fill="#EBE7E8" d="M965.1,100.6c-25.3,3-50.5,6.6-75.6,10.5c132.5-0.3,264.9,0.9,397.3,3.7c37.6,0.8,75.4,1.6,113.1,1.2V86
			C1254.7,82.1,1109.3,83.2,965.1,100.6z"/>
		<path fill="#EBE7E8" d="M1329.9,260.3C886.6,260.6,443.3,261,0,261.4v40.2c347.3-0.2,694.6-0.3,1041.9-0.5
			c119.3-0.1,238.8-0.1,358.1-4.1v-36.3C1376.6,260.2,1353.2,260.2,1329.9,260.3z"/>
		<path fill="#EBE7E8" d="M322.1,244.1c-107.1,4.1-215.3,5.3-322.1,9.7v4.3c293.1,0.1,586.2,0.2,879.3,0.3c73.9,0,148,0.1,221.6-2.4
			c58.9-2,117.1-5.5,175.3-9.1c41.3-2.5,82.6-5,123.9-7.6V231c-278.2,0-556.3-0.1-834.5-0.1C484.8,236.1,403.9,241,322.1,244.1z"/>
		<path fill="#EBE7E8" d="M445.7,346.1C295.8,355.5,147,372.9,0,404.1v18c466.7,2.2,933.3,4.4,1400,6.7v-59.3
			c-73.7-4-148-4-221.7-4.5C934,363.4,689.9,355.2,445.7,346.1z"/>
		<path fill="#EBE7E8" d="M0,306.7v6.3c110.9,20.1,225.6,24.8,338.6,29c35.7,1.3,71.4,2.7,107.1,4c315.7-19.9,636.1-4.4,954.3-8.2
			v-14.2C934.3,298.4,466.3,325.8,0,306.7z"/>
	</g>
	<g opacity="0.1">
		<path fill="#EBE7E8" d="M834.5,435.4c-107.9,9.6-215.4,20.3-324.1,27.8c296.7-0.3,593.3-4,889.5-11.1v-10.2
			c-101-6.4-204.3-6.5-306.7-6.5C1007.1,435.4,920.8,435.4,834.5,435.4z"/>
		<path fill="#EBE7E8" d="M0,303.7v15.8c287.6-11.4,577.2-8.1,866-7.3c178,0.5,356,0,534-1.5v-9.4c-408.1-0.1-816.2-0.1-1224.2-0.2
			C117.1,301.2,58.4,301.2,0,303.7z"/>
		<path fill="#EBE7E8" d="M113.1,461.5C75.5,461.2,37.7,460.8,0,461v13.3c145.3,1.7,290.7,1.2,434.9-6.5c25.3-1.4,50.5-2.9,75.6-4.7
			C378,463.3,245.6,462.8,113.1,461.5z"/>
		<path fill="#EBE7E8" d="M0,380.5v16.2c23.4,0.2,46.8,0.2,70.1,0.2c443.3-0.2,886.6-0.3,1329.9-0.5v-17.9
			c-347.3,0.1-694.6,0.2-1041.9,0.2C238.7,378.7,119.3,378.7,0,380.5z"/>
		<path fill="#EBE7E8" d="M0,348.2c73.7,1.8,148,1.8,221.7,2c244.3,0.7,488.4,4.4,732.6,8.4c149.9-4.2,298.7-11.9,445.7-25.8v-8
			c-466.7-1-933.3-2-1400-3V348.2z"/>
		<path fill="#EBE7E8" d="M954.3,358.6c-315.7,8.8-636.1,2-954.3,3.7v6.3c465.7,11.2,933.7-1,1400,7.5v-2.8
			c-110.9-9-225.6-11-338.6-12.9C1025.7,359.8,990,359.2,954.3,358.6z"/>
	</g>
	<g opacity="0.1">
		<path fill="#EBE7E8" d="M0,105.4c101,2.9,204.3,3,306.7,3c86.3,0,172.6,0,258.8,0c107.9-4.4,215.4-9.3,324.1-12.7
			C592.9,95.9,296.2,97.6,0,100.8V105.4z"/>
		<path fill="#EBE7E8" d="M534,164.7c-178-0.2-356,0-534,0.7v4.3c408.1,0,816.2,0,1224.2,0.1c58.6,0,117.4,0,175.8-1.1v-7.2
			C1112.4,166.6,822.8,165,534,164.7z"/>
		<path fill="#EBE7E8" d="M965.1,93.6c-25.3,0.6-50.5,1.3-75.6,2.1c132.5-0.1,264.9,0.2,397.3,0.7c37.6,0.2,75.4,0.3,113.1,0.2v-6.1
			C1254.7,89.9,1109.3,90.1,965.1,93.6z"/>
		<path fill="#EBE7E8" d="M0,126.3v8.2c347.3,0,694.6-0.1,1041.9-0.1c119.3,0,238.8,0,358.1-0.8v-7.4c-23.4-0.1-46.8-0.1-70.1-0.1
			C886.6,126.1,443.3,126.2,0,126.3z"/>
		<path fill="#EBE7E8" d="M445.7,143.5C295.8,145.4,147,148.9,0,155.3v3.7c466.7,0.5,933.3,0.9,1400,1.4v-12
			c-73.7-0.8-148-0.8-221.7-0.9C934,147,689.9,145.3,445.7,143.5z"/>
		<path fill="#EBE7E8" d="M0,135.5v1.3c110.9,4.1,225.6,5,338.6,5.9c35.7,0.3,71.4,0.5,107.1,0.8c315.7-4,636.1-0.9,954.3-1.7v-2.9
			C934.3,133.8,466.3,139.4,0,135.5z"/>
	</g>
	<g opacity="0.3">
		<path fill="#EBE7E8" d="M834.5,250.9c-107.9,3.4-215.4,7.1-324.1,9.8c296.7-0.1,593.3-1.4,889.5-3.9v-3.6
			c-101-2.3-204.3-2.3-306.7-2.3C1007.1,250.9,920.8,250.9,834.5,250.9z"/>
		<path fill="#EBE7E8" d="M0,204.7v5.5c287.6-4,577.2-2.8,866-2.6c178,0.2,356,0,534-0.5v-3.3c-408.1,0-816.2,0-1224.2-0.1
			C117.1,203.8,58.4,203.8,0,204.7z"/>
		<path fill="#EBE7E8" d="M0,259.9v4.7c145.3,0.6,290.7,0.4,434.9-2.3c25.3-0.5,50.5-1,75.6-1.6c-132.5,0-264.9-0.1-397.3-0.6
			C75.5,260,37.7,259.9,0,259.9z"/>
		<path fill="#EBE7E8" d="M0,231.6v5.7c23.4,0.1,46.8,0.1,70.1,0.1c443.3-0.1,886.6-0.1,1329.9-0.2v-6.3
			c-347.3,0-694.6,0.1-1041.9,0.1C238.7,231,119.3,231,0,231.6z"/>
		<path fill="#EBE7E8" d="M299.2,263.2c-58.9,0.9-117.1,2.7-175.3,4.4C82.6,268.8,41.3,270,0,271.2v4.1c278.2,0,556.3,0,834.5,0.1
			c80.7-2.5,161.6-4.9,243.4-6.4c107.1-2,215.3-2.6,322.1-4.7v-2.1c-293.1-0.1-586.2-0.1-879.3-0.2C446.8,262,372.7,262,299.2,263.2
			z"/>
		<path fill="#EBE7E8" d="M0,220.3c73.7,0.6,148,0.6,221.7,0.7c244.3,0.2,488.4,1.5,732.6,3c149.9-1.5,298.7-4.2,445.7-9.1v-2.8
			c-466.7-0.3-933.3-0.7-1400-1V220.3z"/>
		<path fill="#EBE7E8" d="M954.3,224c-315.7,3.1-636.1,0.7-954.3,1.3v2.2c465.7,3.9,933.7-0.3,1400,2.6v-1
			c-110.9-3.1-225.6-3.9-338.6-4.5C1025.7,224.4,990,224.2,954.3,224z"/>
	</g>
	<g>
		<g>
			<g>
				<rect y="503.3" fill="#262C4C" width="1400" height="476.7"/>
			</g>
		</g>
	</g>
	<g>
		<g>
			<g>
				<linearGradient id="SVGID_2_" gradientUnits="userSpaceOnUse" x1="184.8067" y1="967" x2="184.8067" y2="508.9956">
					<stop  offset="0" style="stop-color:#F36E27"/>
					<stop  offset="0.11" style="stop-color:#F3752B"/>
					<stop  offset="0.2878" style="stop-color:#F38639"/>
					<stop  offset="0.5113" style="stop-color:#F3A152"/>
					<stop  offset="0.7689" style="stop-color:#F4C877"/>
					<stop  offset="1" style="stop-color:#F5F09F"/>
				</linearGradient>
				<path fill="url(#SVGID_2_)" d="M133.6,554.2c34.1-3.4,68.3-3,102.5-0.8c-9.1-2.8-18.2-5.3-27.3-7.5
					C183.6,548.2,158.6,551,133.6,554.2z"/>
			</g>
			<g>
				<linearGradient id="SVGID_3_" gradientUnits="userSpaceOnUse" x1="315.7813" y1="967" x2="315.7813" y2="508.9956">
					<stop  offset="0" style="stop-color:#F36E27"/>
					<stop  offset="0.11" style="stop-color:#F3752B"/>
					<stop  offset="0.2878" style="stop-color:#F38639"/>
					<stop  offset="0.5113" style="stop-color:#F3A152"/>
					<stop  offset="0.7689" style="stop-color:#F4C877"/>
					<stop  offset="1" style="stop-color:#F5F09F"/>
				</linearGradient>
				<path fill="url(#SVGID_3_)" d="M323.3,588.6c-5,0-10,0-14.9,0C313.3,588.7,318.3,588.7,323.3,588.6z"/>
			</g>
			<g>
				<linearGradient id="SVGID_4_" gradientUnits="userSpaceOnUse" x1="222.6115" y1="800.0229" x2="222.6115" y2="534.3135">
					<stop  offset="0" style="stop-color:#F36E27"/>
					<stop  offset="0.11" style="stop-color:#F3752B"/>
					<stop  offset="0.2878" style="stop-color:#F38639"/>
					<stop  offset="0.5113" style="stop-color:#F3A152"/>
					<stop  offset="0.7689" style="stop-color:#F4C877"/>
					<stop  offset="1" style="stop-color:#F5F09F"/>
				</linearGradient>
				<path fill="url(#SVGID_4_)" d="M272.8,565.6c20.5,0,40.9,0.1,61.4,0.1c-32.6-2.2-65.4-4.4-98.1-5.7c8.9,1.6,17.7,3.3,26.4,5.2
					c-19-0.7-38-1.3-57.1-2c-17.6-0.6-35.5-1.2-52.5,2.1c37,0.1,74.1,0.2,111.1,0.3c2.4,0.5,4.8,1,7.2,1.6c-28-0.4-56,1.4-83.5,5.1
					c-28.2-2.1-56.3-3.5-84.5-2c23.5,1.5,47.1,3.1,70.7,4.1c-8.6,1.4-17.2,3-25.7,4.8c53.3,0.9,106.7,1.3,160.1,1.3
					c-26.1-0.3-52.2-2.4-78.3-4.6c37.7,0.1,75.2-1.9,112-7.8C318.9,567.3,295.9,566.5,272.8,565.6z"/>
			</g>
			<g>
				<linearGradient id="SVGID_5_" gradientUnits="userSpaceOnUse" x1="185.8889" y1="967" x2="185.8889" y2="508.9956">
					<stop  offset="0" style="stop-color:#F36E27"/>
					<stop  offset="0.11" style="stop-color:#F3752B"/>
					<stop  offset="0.2878" style="stop-color:#F38639"/>
					<stop  offset="0.5113" style="stop-color:#F3A152"/>
					<stop  offset="0.7689" style="stop-color:#F4C877"/>
					<stop  offset="1" style="stop-color:#F5F09F"/>
				</linearGradient>
				<path fill="url(#SVGID_5_)" d="M145.3,521.8l54.5,10.6c8.7-4.1,17.6-7.3,26.7-9.7C199.4,524.2,172.3,523.9,145.3,521.8z"/>
			</g>
			<g>
				<linearGradient id="SVGID_6_" gradientUnits="userSpaceOnUse" x1="339.7143" y1="967" x2="339.7143" y2="508.9956">
					<stop  offset="0" style="stop-color:#F36E27"/>
					<stop  offset="0.11" style="stop-color:#F3752B"/>
					<stop  offset="0.2878" style="stop-color:#F38639"/>
					<stop  offset="0.5113" style="stop-color:#F3A152"/>
					<stop  offset="0.7689" style="stop-color:#F4C877"/>
					<stop  offset="1" style="stop-color:#F5F09F"/>
				</linearGradient>
				<path fill="url(#SVGID_6_)" d="M341.5,588.5c4.9-1,9.8-1.9,14.6-2.9c-11,1.8-21.9,2.7-32.9,3
					C329.3,588.6,335.4,588.5,341.5,588.5z"/>
			</g>
			<g>
				<linearGradient id="SVGID_7_" gradientUnits="userSpaceOnUse" x1="254.1671" y1="596.5522" x2="254.1671" y2="535.1054">
					<stop  offset="0" style="stop-color:#F36E27"/>
					<stop  offset="0.11" style="stop-color:#F3752B"/>
					<stop  offset="0.2878" style="stop-color:#F38639"/>
					<stop  offset="0.5113" style="stop-color:#F3A152"/>
					<stop  offset="0.7689" style="stop-color:#F4C877"/>
					<stop  offset="1" style="stop-color:#F5F09F"/>
				</linearGradient>
				<path fill="url(#SVGID_7_)" d="M199.8,538.2c-5.3,0.3-10.4,0.7-15.4,1.1c8.2,0.2,16.3,0.4,24.4,0.7c38.4-0.5,76.8-0.8,115.3-0.9
					C283.5,537.7,241.1,538.5,199.8,538.2z"/>
			</g>
			<g>
				<linearGradient id="SVGID_8_" gradientUnits="userSpaceOnUse" x1="562.9751" y1="888.9889" x2="562.9751" y2="659.9857">
					<stop  offset="0" style="stop-color:#F36E27"/>
					<stop  offset="0.11" style="stop-color:#F3752B"/>
					<stop  offset="0.2878" style="stop-color:#F38639"/>
					<stop  offset="0.5113" style="stop-color:#F3A152"/>
					<stop  offset="0.7689" style="stop-color:#F4C877"/>
					<stop  offset="1" style="stop-color:#F5F09F"/>
				</linearGradient>
				<path fill="url(#SVGID_8_)" d="M508.6,803.6c-5.3,1.2-10.4,2.6-15.4,4.2c8.2,0.8,16.3,1.7,24.4,2.6c38.4-1.7,76.8-2.8,115.3-3.3
					C592.3,801.6,549.9,804.7,508.6,803.6z"/>
			</g>
			<g>
				<linearGradient id="SVGID_9_" gradientUnits="userSpaceOnUse" x1="385.0537" y1="760.9889" x2="385.0537" y2="531.9857">
					<stop  offset="0" style="stop-color:#F36E27"/>
					<stop  offset="0.11" style="stop-color:#F3752B"/>
					<stop  offset="0.2878" style="stop-color:#F38639"/>
					<stop  offset="0.5113" style="stop-color:#F3A152"/>
					<stop  offset="0.7689" style="stop-color:#F4C877"/>
					<stop  offset="1" style="stop-color:#F5F09F"/>
				</linearGradient>
				<path fill="url(#SVGID_9_)" d="M330.7,675.6c-5.3,1.2-10.4,2.6-15.4,4.2c8.2,0.8,16.3,1.7,24.4,2.6c38.4-1.7,76.8-2.8,115.3-3.3
					C414.4,673.6,371.9,676.7,330.7,675.6z"/>
			</g>
			<g>
				<linearGradient id="SVGID_10_" gradientUnits="userSpaceOnUse" x1="94.9296" y1="730.9889" x2="94.9296" y2="501.9857">
					<stop  offset="0" style="stop-color:#F36E27"/>
					<stop  offset="0.11" style="stop-color:#F3752B"/>
					<stop  offset="0.2878" style="stop-color:#F38639"/>
					<stop  offset="0.5113" style="stop-color:#F3A152"/>
					<stop  offset="0.7689" style="stop-color:#F4C877"/>
					<stop  offset="1" style="stop-color:#F5F09F"/>
				</linearGradient>
				<path fill="url(#SVGID_10_)" d="M40.5,645.6c-5.3,1.2-10.4,2.6-15.4,4.2c8.2,0.8,16.3,1.7,24.4,2.6c38.4-1.7,76.8-2.8,115.3-3.3
					C124.3,643.6,81.8,646.7,40.5,645.6z"/>
			</g>
			<g>
				<linearGradient id="SVGID_11_" gradientUnits="userSpaceOnUse" x1="228.0158" y1="859.8557" x2="228.0158" y2="630.3929">
					<stop  offset="0" style="stop-color:#F36E27"/>
					<stop  offset="0.11" style="stop-color:#F3752B"/>
					<stop  offset="0.2878" style="stop-color:#F38639"/>
					<stop  offset="0.5113" style="stop-color:#F3A152"/>
					<stop  offset="0.7689" style="stop-color:#F4C877"/>
					<stop  offset="1" style="stop-color:#F5F09F"/>
				</linearGradient>
				<path fill="url(#SVGID_11_)" d="M158.2,766.9c40.5,5.5,82.9,2.5,124.2,3.7c5.3-1.2,10.4-2.6,15.5-4.1
					c-8.2-0.8-16.3-1.7-24.4-2.7C235.1,765.4,196.7,766.5,158.2,766.9z"/>
			</g>
			<g>
				<linearGradient id="SVGID_12_" gradientUnits="userSpaceOnUse" x1="223.7986" y1="967" x2="223.7986" y2="508.9956">
					<stop  offset="0" style="stop-color:#F36E27"/>
					<stop  offset="0.11" style="stop-color:#F3752B"/>
					<stop  offset="0.2878" style="stop-color:#F38639"/>
					<stop  offset="0.5113" style="stop-color:#F3A152"/>
					<stop  offset="0.7689" style="stop-color:#F4C877"/>
					<stop  offset="1" style="stop-color:#F5F09F"/>
				</linearGradient>
				<path fill="url(#SVGID_12_)" d="M139.8,516.7c29.2,4.7,58.6,6.6,88,5.6c-0.5,0.1-0.9,0.2-1.4,0.4c27.2-1.6,54.4-5,81.3-10.3
					c-47.9,0.2-95.8,0.5-143.7,0.7C155,513.1,148.7,514.7,139.8,516.7z"/>
			</g>
			<g>
				<linearGradient id="SVGID_13_" gradientUnits="userSpaceOnUse" x1="144.2607" y1="778.7856" x2="144.2607" y2="549.7842">
					<stop  offset="0" style="stop-color:#F36E27"/>
					<stop  offset="0.11" style="stop-color:#F3752B"/>
					<stop  offset="0.2878" style="stop-color:#F38639"/>
					<stop  offset="0.5113" style="stop-color:#F3A152"/>
					<stop  offset="0.7689" style="stop-color:#F4C877"/>
					<stop  offset="1" style="stop-color:#F5F09F"/>
				</linearGradient>
				<path fill="url(#SVGID_13_)" d="M87.4,596.5c37.9,0.6,75.8,0.8,113.6,0.7c-5.7-0.5-11.5-0.9-17.2-1.5
					C151.6,592.7,117.4,588.5,87.4,596.5z"/>
			</g>
			<g>
				<linearGradient id="SVGID_14_" gradientUnits="userSpaceOnUse" x1="397.8466" y1="833.49" x2="397.8466" y2="690.3621">
					<stop  offset="0" style="stop-color:#F36E27"/>
					<stop  offset="0.11" style="stop-color:#F3752B"/>
					<stop  offset="0.2878" style="stop-color:#F38639"/>
					<stop  offset="0.5113" style="stop-color:#F3A152"/>
					<stop  offset="0.7689" style="stop-color:#F4C877"/>
					<stop  offset="1" style="stop-color:#F5F09F"/>
				</linearGradient>
				<path fill="url(#SVGID_14_)" d="M341,776.5c37.9,0.4,75.8,0.5,113.6,0.4c-5.7-0.3-11.5-0.6-17.2-0.9
					C405.2,774.1,371,771.5,341,776.5z"/>
			</g>
			<g>
				<linearGradient id="SVGID_15_" gradientUnits="userSpaceOnUse" x1="124.6176" y1="967" x2="124.6176" y2="508.9956">
					<stop  offset="0" style="stop-color:#F36E27"/>
					<stop  offset="0.11" style="stop-color:#F3752B"/>
					<stop  offset="0.2878" style="stop-color:#F38639"/>
					<stop  offset="0.5113" style="stop-color:#F3A152"/>
					<stop  offset="0.7689" style="stop-color:#F4C877"/>
					<stop  offset="1" style="stop-color:#F5F09F"/>
				</linearGradient>
				<path fill="url(#SVGID_15_)" d="M120.6,668c2.7-0.4,5.4-0.7,8-0.9c-1.3-0.1-2.6-0.2-3.9-0.3C123.4,667.2,122,667.6,120.6,668z"
					/>
			</g>
			<g>
				<linearGradient id="SVGID_16_" gradientUnits="userSpaceOnUse" x1="145.6883" y1="950.0283" x2="145.6883" y2="492.024">
					<stop  offset="0" style="stop-color:#F36E27"/>
					<stop  offset="0.11" style="stop-color:#F3752B"/>
					<stop  offset="0.2878" style="stop-color:#F38639"/>
					<stop  offset="0.5113" style="stop-color:#F3A152"/>
					<stop  offset="0.7689" style="stop-color:#F4C877"/>
					<stop  offset="1" style="stop-color:#F5F09F"/>
				</linearGradient>
				<path fill="url(#SVGID_16_)" d="M0,933.8v11.1c97.1-1.3,194.3-2.7,291.4-4c-32.7-2.7-65.4-6.6-97.9-12.1
					C129,930.4,64.5,932.1,0,933.8z"/>
			</g>
			<g>
				<linearGradient id="SVGID_17_" gradientUnits="userSpaceOnUse" x1="328.6082" y1="901.9073" x2="328.6082" y2="769.8807">
					<stop  offset="0" style="stop-color:#F36E27"/>
					<stop  offset="0.11" style="stop-color:#F3752B"/>
					<stop  offset="0.2878" style="stop-color:#F38639"/>
					<stop  offset="0.5113" style="stop-color:#F3A152"/>
					<stop  offset="0.7689" style="stop-color:#F4C877"/>
					<stop  offset="1" style="stop-color:#F5F09F"/>
				</linearGradient>
				<path fill="url(#SVGID_17_)" d="M511.7,888.8c-24.1,1-48.4,1-72.6,1c-119.8,0.1-239.6-0.1-359.4-0.4c4.4,0.2,8.8,0.4,13.2,0.6
					c24,1.2,47.8,2.8,71.7,4.3c9.6,0.6,19.3,1.1,29,1.6c128-1,256-1.9,384-2.9c-21.7-1.7-43.6-3-65.6-4.1
					C511.9,888.8,511.8,888.8,511.7,888.8z"/>
			</g>
			<g>
				<linearGradient id="SVGID_18_" gradientUnits="userSpaceOnUse" x1="476.7036" y1="967" x2="476.7036" y2="508.9956">
					<stop  offset="0" style="stop-color:#F36E27"/>
					<stop  offset="0.11" style="stop-color:#F3752B"/>
					<stop  offset="0.2878" style="stop-color:#F38639"/>
					<stop  offset="0.5113" style="stop-color:#F3A152"/>
					<stop  offset="0.7689" style="stop-color:#F4C877"/>
					<stop  offset="1" style="stop-color:#F5F09F"/>
				</linearGradient>
				<path fill="url(#SVGID_18_)" d="M571.9,960.4c30.1-0.8,60.4-1.6,90.1-7.7c-123.6,1.7-247.1,3.4-370.7,5.1
					C384.5,965.4,478.4,962.9,571.9,960.4z"/>
			</g>
			<g>
				<linearGradient id="SVGID_19_" gradientUnits="userSpaceOnUse" x1="39.8453" y1="967" x2="39.8453" y2="508.9956">
					<stop  offset="0" style="stop-color:#F36E27"/>
					<stop  offset="0.11" style="stop-color:#F3752B"/>
					<stop  offset="0.2878" style="stop-color:#F38639"/>
					<stop  offset="0.5113" style="stop-color:#F3A152"/>
					<stop  offset="0.7689" style="stop-color:#F4C877"/>
					<stop  offset="1" style="stop-color:#F5F09F"/>
				</linearGradient>
				<path fill="url(#SVGID_19_)" d="M0,922.6c26.6,0.3,53.1,0.7,79.7,0.9c-26.5-3.7-53-5.4-79.7-5.8V922.6z"/>
			</g>
			<g>
				<linearGradient id="SVGID_20_" gradientUnits="userSpaceOnUse" x1="50.0361" y1="967" x2="50.0361" y2="508.9956">
					<stop  offset="0" style="stop-color:#F36E27"/>
					<stop  offset="0.11" style="stop-color:#F3752B"/>
					<stop  offset="0.2878" style="stop-color:#F38639"/>
					<stop  offset="0.5113" style="stop-color:#F3A152"/>
					<stop  offset="0.7689" style="stop-color:#F4C877"/>
					<stop  offset="1" style="stop-color:#F5F09F"/>
				</linearGradient>
				<path fill="url(#SVGID_20_)" d="M0,871.7c33.5,1.7,67.1,2,100.1-3.2c-33.4,0.3-66.7,0.6-100.1,0.9V871.7z"/>
			</g>
			<g>
				<linearGradient id="SVGID_21_" gradientUnits="userSpaceOnUse" x1="273.3721" y1="967" x2="273.3721" y2="508.9956">
					<stop  offset="0" style="stop-color:#F36E27"/>
					<stop  offset="0.11" style="stop-color:#F3752B"/>
					<stop  offset="0.2878" style="stop-color:#F38639"/>
					<stop  offset="0.5113" style="stop-color:#F3A152"/>
					<stop  offset="0.7689" style="stop-color:#F4C877"/>
					<stop  offset="1" style="stop-color:#F5F09F"/>
				</linearGradient>
				<path fill="url(#SVGID_21_)" d="M260.4,698.9c8.7,0,17.4,0.1,26,0.1c-3.2-0.8-6.3-1.6-9.4-2.5
					C271.4,697.3,265.9,698.1,260.4,698.9z"/>
			</g>
			<g>
				<linearGradient id="SVGID_22_" gradientUnits="userSpaceOnUse" x1="25.4748" y1="967" x2="25.4748" y2="508.9956">
					<stop  offset="0" style="stop-color:#F36E27"/>
					<stop  offset="0.11" style="stop-color:#F3752B"/>
					<stop  offset="0.2878" style="stop-color:#F38639"/>
					<stop  offset="0.5113" style="stop-color:#F3A152"/>
					<stop  offset="0.7689" style="stop-color:#F4C877"/>
					<stop  offset="1" style="stop-color:#F5F09F"/>
				</linearGradient>
				<path fill="url(#SVGID_22_)" d="M0,676.1v1.4c17,0,34,0,50.9,0C34,675.3,17,675.4,0,676.1z"/>
			</g>
			<g>
				<linearGradient id="SVGID_23_" gradientUnits="userSpaceOnUse" x1="170.9429" y1="967" x2="170.9429" y2="508.9956">
					<stop  offset="0" style="stop-color:#F36E27"/>
					<stop  offset="0.11" style="stop-color:#F3752B"/>
					<stop  offset="0.2878" style="stop-color:#F38639"/>
					<stop  offset="0.5113" style="stop-color:#F3A152"/>
					<stop  offset="0.7689" style="stop-color:#F4C877"/>
					<stop  offset="1" style="stop-color:#F5F09F"/>
				</linearGradient>
				<path fill="url(#SVGID_23_)" d="M81.5,705.8c59.5,7.6,119.2,1.5,178.8-6.8c-35.4-0.1-70.8-0.2-106.2-0.3
					C129.8,698.5,105.2,698.5,81.5,705.8z"/>
			</g>
			<g>
				<linearGradient id="SVGID_24_" gradientUnits="userSpaceOnUse" x1="379.8368" y1="967" x2="379.8368" y2="508.9956">
					<stop  offset="0" style="stop-color:#F36E27"/>
					<stop  offset="0.11" style="stop-color:#F3752B"/>
					<stop  offset="0.2878" style="stop-color:#F38639"/>
					<stop  offset="0.5113" style="stop-color:#F3A152"/>
					<stop  offset="0.7689" style="stop-color:#F4C877"/>
					<stop  offset="1" style="stop-color:#F5F09F"/>
				</linearGradient>
				<path fill="url(#SVGID_24_)" d="M385.5,766.1c0.4-0.1,0.8-0.2,1.3-0.3c-4.6,0-9.3,0-13.9,0C377.1,765.9,381.3,766,385.5,766.1z"
					/>
			</g>
			<g>
				<linearGradient id="SVGID_25_" gradientUnits="userSpaceOnUse" x1="635.1591" y1="967" x2="635.1591" y2="508.9956">
					<stop  offset="0" style="stop-color:#F36E27"/>
					<stop  offset="0.11" style="stop-color:#F3752B"/>
					<stop  offset="0.2878" style="stop-color:#F38639"/>
					<stop  offset="0.5113" style="stop-color:#F3A152"/>
					<stop  offset="0.7689" style="stop-color:#F4C877"/>
					<stop  offset="1" style="stop-color:#F5F09F"/>
				</linearGradient>
				<path fill="url(#SVGID_25_)" d="M633.1,860.3c1.4,0,2.7,0,4.1,0c-1.1-0.1-2.1-0.2-3.2-0.3C633.7,860.1,633.4,860.2,633.1,860.3z
					"/>
			</g>
			<g>
				<linearGradient id="SVGID_26_" gradientUnits="userSpaceOnUse" x1="476.5493" y1="967" x2="476.5493" y2="508.9956">
					<stop  offset="0" style="stop-color:#F36E27"/>
					<stop  offset="0.11" style="stop-color:#F3752B"/>
					<stop  offset="0.2878" style="stop-color:#F38639"/>
					<stop  offset="0.5113" style="stop-color:#F3A152"/>
					<stop  offset="0.7689" style="stop-color:#F4C877"/>
					<stop  offset="1" style="stop-color:#F5F09F"/>
				</linearGradient>
				<path fill="url(#SVGID_26_)" d="M530.8,826.6c-36.2-0.6-72.4-1.1-108.6-1.7C458.6,828.9,494.9,831.5,530.8,826.6z"/>
			</g>
			<linearGradient id="SVGID_27_" gradientUnits="userSpaceOnUse" x1="469.5989" y1="738.7878" x2="55.816" y2="738.7878">
				<stop  offset="0" style="stop-color:#F36E27"/>
				<stop  offset="0.11" style="stop-color:#F3752B"/>
				<stop  offset="0.2878" style="stop-color:#F38639"/>
				<stop  offset="0.5113" style="stop-color:#F3A152"/>
				<stop  offset="0.7689" style="stop-color:#F4C877"/>
				<stop  offset="1" style="stop-color:#F5F09F"/>
			</linearGradient>
			<path fill="url(#SVGID_27_)" d="M474.4,735.4c-21.7-1-43.3-3.6-64.9-5.8c30.2-2.2,60.4-4.8,90.6-6c-71.2-0.1-142.5-0.2-213.7-0.3
				c11.9,1.4,23.8,2.8,35.8,4.1c-9.4,1-18.6,2.5-27.4,4.8c24.8,1.5,49.5,1.2,74.3,0c17.5,1.7,35,3.2,52.6,4.6
				c-29.4-0.5-58.8-0.9-88.2-1.4c-25.8-0.4-51.7-0.8-77.5-1c-85.4-0.6-170.7,1.1-256,3.3v3c29.3,0.9,58.5,1.7,87.8,2.6
				c-29.3,1.9-58.5,3.8-87.8,5.7v5.2c0.2,0,0.3,0,0.5,0c124.1,0.1,248.3,0.1,372.4,0.2c-22.6-0.3-44.8-0.8-67.2-0.4
				c-20.5,0.4-40.2-4.5-60.7-3.4c-6.9,0.4-13.6,1.4-20.5,2c-27.2,2.1-54.1-4.5-81.5-5.8c-16-0.8-32.3,0.2-48.2-1
				c27.9,1.2,56,0.4,83.6-2.2c10.4-1,20.7-2.3,31.1-3.1c20.3-1.6,40.8-1.4,61.3-1.1c29.3,0.3,58.6,2,87.9,1.7
				c13.7-0.1,26.4-1.3,39.7-2.5c13.3-1.2,26.4,1.6,39.5,2.5c6.8,0.5,13.6,0.4,20.5,0.5c14.3,0.2,28,2.4,42.1,2.9
				c13.8,0.6,28.5-0.2,42.4-0.2c3,0,6.1,0,9.1-0.2c10.5-0.6,21.1-1.5,31.5-2.8c3.8-0.5,7.5-1.1,11.2-1.7
				c-55.3-0.9-110.6-1.8-166-2.7C443.9,736,459.1,735.5,474.4,735.4z"/>
			<g>
				<linearGradient id="SVGID_28_" gradientUnits="userSpaceOnUse" x1="606.1334" y1="967" x2="606.1335" y2="508.9956">
					<stop  offset="0" style="stop-color:#F36E27"/>
					<stop  offset="0.11" style="stop-color:#F3752B"/>
					<stop  offset="0.2878" style="stop-color:#F38639"/>
					<stop  offset="0.5113" style="stop-color:#F3A152"/>
					<stop  offset="0.7689" style="stop-color:#F4C877"/>
					<stop  offset="1" style="stop-color:#F5F09F"/>
				</linearGradient>
				<path fill="url(#SVGID_28_)" d="M620.2,783.7c-9.4,0-18.7-0.1-28.1-0.1C601.4,784.3,610.8,784.4,620.2,783.7z"/>
			</g>
			<g>
				<linearGradient id="SVGID_29_" gradientUnits="userSpaceOnUse" x1="618.041" y1="887.8048" x2="618.0411" y2="768.9301">
					<stop  offset="0" style="stop-color:#F36E27"/>
					<stop  offset="0.11" style="stop-color:#F3752B"/>
					<stop  offset="0.2878" style="stop-color:#F38639"/>
					<stop  offset="0.5113" style="stop-color:#F3A152"/>
					<stop  offset="0.7689" style="stop-color:#F4C877"/>
					<stop  offset="1" style="stop-color:#F5F09F"/>
				</linearGradient>
				<path fill="url(#SVGID_29_)" d="M539.7,858.1c31.4,0.7,62.9,1.3,94.3,2c20.7-1.3,41.4-2.4,62.4-2.3c-31.1-1.9-62.8-2.9-94.5-3
					C581,855.6,560.1,856.5,539.7,858.1z"/>
			</g>
			<g>
				<linearGradient id="SVGID_30_" gradientUnits="userSpaceOnUse" x1="672.4695" y1="966.5352" x2="672.4695" y2="847.6618">
					<stop  offset="0" style="stop-color:#F36E27"/>
					<stop  offset="0.11" style="stop-color:#F3752B"/>
					<stop  offset="0.2878" style="stop-color:#F38639"/>
					<stop  offset="0.5113" style="stop-color:#F3A152"/>
					<stop  offset="0.7689" style="stop-color:#F4C877"/>
					<stop  offset="1" style="stop-color:#F5F09F"/>
				</linearGradient>
				<path fill="url(#SVGID_30_)" d="M594.1,936.8c31.4,0.7,62.9,1.3,94.3,2c20.7-1.3,41.4-2.4,62.4-2.3c-31.1-1.9-62.8-2.9-94.5-3
					C635.5,934.3,614.5,935.2,594.1,936.8z"/>
			</g>
			<g>
				<linearGradient id="SVGID_31_" gradientUnits="userSpaceOnUse" x1="433.5621" y1="942.4956" x2="433.5621" y2="823.6208">
					<stop  offset="0" style="stop-color:#F36E27"/>
					<stop  offset="0.11" style="stop-color:#F3752B"/>
					<stop  offset="0.2878" style="stop-color:#F38639"/>
					<stop  offset="0.5113" style="stop-color:#F3A152"/>
					<stop  offset="0.7689" style="stop-color:#F4C877"/>
					<stop  offset="1" style="stop-color:#F5F09F"/>
				</linearGradient>
				<path fill="url(#SVGID_31_)" d="M355.2,912.7c31.4,0.7,62.9,1.3,94.3,2c20.7-1.3,41.4-2.4,62.4-2.3c-31.1-1.9-62.8-2.9-94.5-3
					C396.5,910.3,375.6,911.2,355.2,912.7z"/>
			</g>
			<g>
				<linearGradient id="SVGID_32_" gradientUnits="userSpaceOnUse" x1="393.8021" y1="866.8051" x2="393.8021" y2="692.1134">
					<stop  offset="0" style="stop-color:#F36E27"/>
					<stop  offset="0.11" style="stop-color:#F3752B"/>
					<stop  offset="0.2878" style="stop-color:#F38639"/>
					<stop  offset="0.5113" style="stop-color:#F3A152"/>
					<stop  offset="0.7689" style="stop-color:#F4C877"/>
					<stop  offset="1" style="stop-color:#F5F09F"/>
				</linearGradient>
				<path fill="url(#SVGID_32_)" d="M418.8,832.5c-111.5,0.5-222.9,3-334,7.4c118.5,12.4,241.7,3.4,362.8,6.6
					c21.5,0.6,42.9,1.5,64.3,2.9c33-1.8,65.3-5.8,98.2-8.1c30.6-2.1,61.7-2.6,92.6-3.1c-127.4,0-254.8-0.1-382.3-0.1
					C353.2,836.7,386,833.7,418.8,832.5z"/>
			</g>
			<g>
				<linearGradient id="SVGID_33_" gradientUnits="userSpaceOnUse" x1="314.463" y1="967" x2="314.463" y2="633.9922">
					<stop  offset="0" style="stop-color:#F36E27"/>
					<stop  offset="0.11" style="stop-color:#F3752B"/>
					<stop  offset="0.2878" style="stop-color:#F38639"/>
					<stop  offset="0.5113" style="stop-color:#F3A152"/>
					<stop  offset="0.7689" style="stop-color:#F4C877"/>
					<stop  offset="1" style="stop-color:#F5F09F"/>
				</linearGradient>
				<path fill="url(#SVGID_33_)" d="M314.1,611.8c0.3,0,0.5,0,0.8,0c-0.2,0-0.4,0-0.6,0C314.2,611.7,314.1,611.8,314.1,611.8z"/>
			</g>
			<g>
				<linearGradient id="SVGID_34_" gradientUnits="userSpaceOnUse" x1="550.0277" y1="899.3492" x2="550.0277" y2="753.8122">
					<stop  offset="0" style="stop-color:#F36E27"/>
					<stop  offset="0.11" style="stop-color:#F3752B"/>
					<stop  offset="0.2878" style="stop-color:#F38639"/>
					<stop  offset="0.5113" style="stop-color:#F3A152"/>
					<stop  offset="0.7689" style="stop-color:#F4C877"/>
					<stop  offset="1" style="stop-color:#F5F09F"/>
				</linearGradient>
				<path fill="url(#SVGID_34_)" d="M487.3,869c-6.7,0.6-13.5,1-20.3,1.2c36.7,0.2,73.4,1.1,109.8-0.7c18.9-0.9,37.6-2.6,56.4-4.1
					c-37.7-0.1-75.4-0.3-113-0.4C509.2,866.4,498.4,868,487.3,869z"/>
			</g>
			<g>
				<linearGradient id="SVGID_35_" gradientUnits="userSpaceOnUse" x1="364.5854" y1="889.7332" x2="364.5854" y2="744.1962">
					<stop  offset="0" style="stop-color:#F36E27"/>
					<stop  offset="0.11" style="stop-color:#F3752B"/>
					<stop  offset="0.2878" style="stop-color:#F38639"/>
					<stop  offset="0.5113" style="stop-color:#F3A152"/>
					<stop  offset="0.7689" style="stop-color:#F4C877"/>
					<stop  offset="1" style="stop-color:#F5F09F"/>
				</linearGradient>
				<path fill="url(#SVGID_35_)" d="M301.8,859.4c-6.7,0.6-13.5,1-20.3,1.2c36.7,0.2,73.4,1.1,109.8-0.7c18.9-0.9,37.6-2.6,56.4-4.1
					c-37.7-0.1-75.4-0.3-113-0.4C323.7,856.8,313,858.4,301.8,859.4z"/>
			</g>
			<g>
				<linearGradient id="SVGID_36_" gradientUnits="userSpaceOnUse" x1="304.1431" y1="826.0768" x2="304.1431" y2="705.028">
					<stop  offset="0" style="stop-color:#F36E27"/>
					<stop  offset="0.11" style="stop-color:#F3752B"/>
					<stop  offset="0.2878" style="stop-color:#F38639"/>
					<stop  offset="0.5113" style="stop-color:#F3A152"/>
					<stop  offset="0.7689" style="stop-color:#F4C877"/>
					<stop  offset="1" style="stop-color:#F5F09F"/>
				</linearGradient>
				<path fill="url(#SVGID_36_)" d="M333.2,788.2c29.7,0.1,59.4,0.2,89.1,0.4c-20-0.6-40-1.3-60-1.8c39.8-1.9,79.8-3.3,119.9-4.2
					c-121.5-1.8-246.8,4.5-364.4-3.9c-18.7,0.1-37.3,0.2-56,0.3c-20.6,0.1-41.2,0.3-61.8,0.6v8.7c39.7,2.5,79.5,5.6,118.9,3.3
					c-24.2-1.5-48.5-3-72.7-4.5c32.4,0.1,64.5-1.9,96.8-1.7c17.8,0.1,35.3,1.4,53.1,2c11.5,0.4,23.1,0.4,34.7,0.4
					c22,0,44.1,0,66.1,0.1c-24.5,3-52.7,0.8-77.5,3.6c32.1,1.9,64.7,2.7,97.3,2.5c16.8-0.1,34.2-0.5,49.8,1.6
					c-56-0.2-112.1-0.3-168.1-0.5c-16.2,0-32.4,0.1-48,1.7c-16.5,1.6-33.3,2.7-50.3,3.4c99.2-0.2,198.4-0.5,297.6-0.7
					c-18.3-1.5-37-2.1-55.8-2.3c59.4,0.2,118.8,0.3,178.2,0.5c0.6-0.1,1.1-0.1,1.7-0.2c5.9-0.6,11.9-1.1,17.9-1.6
					c-11-0.2-21.9-0.5-32.9-0.7c31.4-1.8,63.3-2.7,95.1-2.6c2.1-0.1,4.2-0.2,6.4-0.3c-114.3,0-228.6,0.1-342.9,0.1
					C287.9,790.8,310.5,789.4,333.2,788.2z"/>
			</g>
			<g>
				<linearGradient id="SVGID_37_" gradientUnits="userSpaceOnUse" x1="442.8857" y1="967" x2="442.8857" y2="508.9956">
					<stop  offset="0" style="stop-color:#F36E27"/>
					<stop  offset="0.11" style="stop-color:#F3752B"/>
					<stop  offset="0.2878" style="stop-color:#F38639"/>
					<stop  offset="0.5113" style="stop-color:#F3A152"/>
					<stop  offset="0.7689" style="stop-color:#F4C877"/>
					<stop  offset="1" style="stop-color:#F5F09F"/>
				</linearGradient>
				<path fill="url(#SVGID_37_)" d="M426.1,876.4c-2.4,0.2-4.8,0.4-7.2,0.6c4.4-0.1,8.8-0.1,13.2-0.2c11.6-0.1,23.3-0.2,34.9-1.5
					C453.3,875.2,439.7,875.3,426.1,876.4z"/>
			</g>
			<g>
				<linearGradient id="SVGID_38_" gradientUnits="userSpaceOnUse" x1="228.1955" y1="748.0278" x2="228.1955" y2="572.3484">
					<stop  offset="0" style="stop-color:#F36E27"/>
					<stop  offset="0.11" style="stop-color:#F3752B"/>
					<stop  offset="0.2878" style="stop-color:#F38639"/>
					<stop  offset="0.5113" style="stop-color:#F3A152"/>
					<stop  offset="0.7689" style="stop-color:#F4C877"/>
					<stop  offset="1" style="stop-color:#F5F09F"/>
				</linearGradient>
				<path fill="url(#SVGID_38_)" d="M355,620.6c-3.5,0-6.9,0-10.4,0c-22.5-0.3-45-0.5-67.5-0.8c-10.3-0.1-20.6-0.2-31-0.2
					c-22.9-0.5-45.7-1.1-68.6-1.9c31.4-5.8,66.2-4.4,99.9-4.8c12.2-0.1,24.4-0.6,36.5-1.2c-78.9,1.5-157.8,2-236.8,1.4
					c37.9,4.7,76.5,7.2,115.5,8.5c-9.2,0.7-18.4,1.4-27.7,1.9c-49.5,2.6-99.8-1-149.2,1.8c32.2,0.1,64.3,1.3,96.1,3.7
					c-26-0.2-52.1-0.4-78.1-0.6c30.1,2.1,60.4,3.6,90.8,4.5c15.2-1.6,30.6-2.4,46.2-2.9c-3.5-0.5-7.1-0.9-10.6-1.3
					c43.3-3.5,87.1-2.4,131-0.7c18.3-0.9,36.2-2.6,53.5-5.5c31.9-0.2,63.7-0.5,95.6-0.7c-28.7-0.3-57.4-0.7-86.1-1
					C354.6,620.7,354.8,620.7,355,620.6z"/>
			</g>
			<g>
				<linearGradient id="SVGID_39_" gradientUnits="userSpaceOnUse" x1="220.2956" y1="946.4014" x2="220.2956" y2="770.722">
					<stop  offset="0" style="stop-color:#F36E27"/>
					<stop  offset="0.11" style="stop-color:#F3752B"/>
					<stop  offset="0.2878" style="stop-color:#F38639"/>
					<stop  offset="0.5113" style="stop-color:#F3A152"/>
					<stop  offset="0.7689" style="stop-color:#F4C877"/>
					<stop  offset="1" style="stop-color:#F5F09F"/>
				</linearGradient>
				<path fill="url(#SVGID_39_)" d="M414.5,814.7c-30.1-2.1-60.4-3.6-90.8-4.5c-15.2,1.6-30.6,2.4-46.2,2.9
					c3.5,0.5,7.1,0.9,10.6,1.3c-43.3,3.5-87.1,2.4-131,0.7c-18.3,0.9-36.2,2.6-53.5,5.5c-31.9,0.2-63.7,0.5-95.6,0.7
					c28.7,0.3,57.4,0.7,86.1,1c-0.2,0-0.4,0.1-0.6,0.1c3.5,0,6.9,0,10.4,0c22.5,0.3,45,0.5,67.5,0.8c10.3,0.1,20.6,0.2,31,0.2
					c22.9,0.5,45.7,1.1,68.6,1.9c-31.4,5.8-66.2,4.4-99.9,4.8c-12.2,0.1-24.4,0.6-36.5,1.2c78.9-1.5,157.8-2,236.8-1.4
					c-37.9-4.7-76.5-7.2-115.5-8.5c9.2-0.7,18.4-1.4,27.7-1.9c49.5-2.6,99.8,1,149.2-1.8c-32.2-0.1-64.3-1.3-96.1-3.7
					C362.5,814.2,388.5,814.4,414.5,814.7z"/>
			</g>
			<g>
				<linearGradient id="SVGID_40_" gradientUnits="userSpaceOnUse" x1="150.0888" y1="967" x2="150.0888" y2="508.9956">
					<stop  offset="0" style="stop-color:#F36E27"/>
					<stop  offset="0.11" style="stop-color:#F3752B"/>
					<stop  offset="0.2878" style="stop-color:#F38639"/>
					<stop  offset="0.5113" style="stop-color:#F3A152"/>
					<stop  offset="0.7689" style="stop-color:#F4C877"/>
					<stop  offset="1" style="stop-color:#F5F09F"/>
				</linearGradient>
				<path fill="url(#SVGID_40_)" d="M128.6,667.1c14.3,1.1,28.6,1.8,42.9,2.2C157.3,667,143,666,128.6,667.1z"/>
			</g>
			<g>
				<linearGradient id="SVGID_41_" gradientUnits="userSpaceOnUse" x1="337.7006" y1="967" x2="337.7006" y2="508.9956">
					<stop  offset="0" style="stop-color:#F36E27"/>
					<stop  offset="0.11" style="stop-color:#F3752B"/>
					<stop  offset="0.2878" style="stop-color:#F38639"/>
					<stop  offset="0.5113" style="stop-color:#F3A152"/>
					<stop  offset="0.7689" style="stop-color:#F4C877"/>
					<stop  offset="1" style="stop-color:#F5F09F"/>
				</linearGradient>
				<path fill="url(#SVGID_41_)" d="M360.5,609.1c-15.2,1-30.4,1.9-45.7,2.7C330.1,611.4,345.3,610.5,360.5,609.1z"/>
			</g>
			<g>
				<linearGradient id="SVGID_42_" gradientUnits="userSpaceOnUse" x1="299.8487" y1="778.5308" x2="299.8487" y2="596.498">
					<stop  offset="0" style="stop-color:#F36E27"/>
					<stop  offset="0.11" style="stop-color:#F3752B"/>
					<stop  offset="0.2878" style="stop-color:#F38639"/>
					<stop  offset="0.5113" style="stop-color:#F3A152"/>
					<stop  offset="0.7689" style="stop-color:#F4C877"/>
					<stop  offset="1" style="stop-color:#F5F09F"/>
				</linearGradient>
				<path fill="url(#SVGID_42_)" d="M291.3,654.2c-39.3,2.1-80.3,0.8-120.3,2c7,1,13.9,2.4,20.4,4.1c-6.6,0-13.2-0.1-19.9-0.1
					c12.3,0.8,24.5,1.9,36.7,3.2c10.5-0.1,21.1-0.3,31.5-0.9c17.7-1,35.2-2.9,52.9-4c45-2.7,90.7,0.3,136-1.1
					C383,658.7,337.1,656.1,291.3,654.2z"/>
			</g>
			<g>
				<linearGradient id="SVGID_43_" gradientUnits="userSpaceOnUse" x1="488.5565" y1="967" x2="488.5565" y2="508.9956">
					<stop  offset="0" style="stop-color:#F36E27"/>
					<stop  offset="0.11" style="stop-color:#F3752B"/>
					<stop  offset="0.2878" style="stop-color:#F38639"/>
					<stop  offset="0.5113" style="stop-color:#F3A152"/>
					<stop  offset="0.7689" style="stop-color:#F4C877"/>
					<stop  offset="1" style="stop-color:#F5F09F"/>
				</linearGradient>
				<path fill="url(#SVGID_43_)" d="M474.4,725.1c9.4,0.9,18.9,1.2,28.4,0.4C493.3,725.1,483.8,725,474.4,725.1z"/>
			</g>
			<g>
				<linearGradient id="SVGID_44_" gradientUnits="userSpaceOnUse" x1="392.0147" y1="842.7343" x2="392.0147" y2="609.1487">
					<stop  offset="0" style="stop-color:#F36E27"/>
					<stop  offset="0.11" style="stop-color:#F3752B"/>
					<stop  offset="0.2878" style="stop-color:#F38639"/>
					<stop  offset="0.5113" style="stop-color:#F3A152"/>
					<stop  offset="0.7689" style="stop-color:#F4C877"/>
					<stop  offset="1" style="stop-color:#F5F09F"/>
				</linearGradient>
				<path fill="url(#SVGID_44_)" d="M289.2,703.9c51.4-0.4,102.7-1.2,154.1-2.6c17.4-0.4,35.2-1,51.6-4.8
					C426.3,693.3,357.7,698.7,289.2,703.9z"/>
			</g>
			<g>
				<linearGradient id="SVGID_45_" gradientUnits="userSpaceOnUse" x1="280.0909" y1="967" x2="280.0909" y2="508.9956">
					<stop  offset="0" style="stop-color:#F36E27"/>
					<stop  offset="0.11" style="stop-color:#F3752B"/>
					<stop  offset="0.2878" style="stop-color:#F38639"/>
					<stop  offset="0.5113" style="stop-color:#F3A152"/>
					<stop  offset="0.7689" style="stop-color:#F4C877"/>
					<stop  offset="1" style="stop-color:#F5F09F"/>
				</linearGradient>
				<path fill="url(#SVGID_45_)" d="M276.9,696.5c4.1-0.6,8.2-1.2,12.2-1.8c-6.1,0.1-12.1,0.2-18.2,0.2
					C273,695.5,275,696,276.9,696.5z"/>
			</g>
			<g>
				<linearGradient id="SVGID_46_" gradientUnits="userSpaceOnUse" x1="160.9769" y1="774.4274" x2="160.9769" y2="621.0652">
					<stop  offset="0" style="stop-color:#F36E27"/>
					<stop  offset="0.11" style="stop-color:#F3752B"/>
					<stop  offset="0.2878" style="stop-color:#F38639"/>
					<stop  offset="0.5113" style="stop-color:#F3A152"/>
					<stop  offset="0.7689" style="stop-color:#F4C877"/>
					<stop  offset="1" style="stop-color:#F5F09F"/>
				</linearGradient>
				<path fill="url(#SVGID_46_)" d="M208.3,677.5c-7.8,0.1-15.6,0.1-23.4,0.1c-44.6,0-89.3,0-133.9,0c0.7,0,1.3,0.1,2,0.1
					c19.8,0.9,39.2,2.9,58.9,4.1c25.6,1.5,51.5,1.7,77.3,1.7c27.3,0.1,54.5,0.1,81.8,0c-10.5-0.9-20.9-1.9-31.3-2.9
					C229.3,679.5,218.8,678.4,208.3,677.5z"/>
			</g>
		</g>
	</g>
	<g opacity="0.1">
		<path fill="#005C7D" d="M534,944c-178-1-356,0-534,3.1v19.8c408.1,0.1,816.2,0.2,1224.2,0.3c58.6,0,117.4,0,175.8-5.2v-33.4
			C1112.4,952.7,822.8,945.6,534,944z"/>
		<path fill="#005C7D" d="M965.1,615.2c-25.3,2.9-50.5,6.2-75.6,9.9c132.5-0.3,264.9,0.9,397.3,3.4c37.6,0.7,75.4,1.5,113.1,1.1
			v-28.2C1254.7,597.8,1109.3,598.9,965.1,615.2z"/>
		<path fill="#005C7D" d="M1329.9,765.2C886.6,765.6,443.3,766,0,766.3V804c347.3-0.2,694.6-0.3,1041.9-0.5
			c119.3-0.1,238.8-0.1,358.1-3.9v-34.1C1376.6,765.2,1353.2,765.2,1329.9,765.2z"/>
		<path fill="#005C7D" d="M322.1,750.1c-107.1,3.9-215.3,5-322.1,9.1v4c293.1,0.1,586.2,0.2,879.3,0.3c73.9,0,148,0,221.6-2.3
			c58.9-1.9,117.1-5.2,175.3-8.5c41.3-2.4,82.6-4.7,123.9-7.1v-7.9c-278.2,0-556.3-0.1-834.5-0.1
			C484.8,742.6,403.9,747.1,322.1,750.1z"/>
		<path fill="#005C7D" d="M445.7,845.9C295.8,854.8,147,871.1,0,900.4v16.9c466.7,2.1,933.3,4.2,1400,6.2v-55.7
			c-73.7-3.8-148-3.7-221.7-4.2C934,862.2,689.9,854.4,445.7,845.9z"/>
		<path fill="#005C7D" d="M0,808.9v5.9c110.9,18.9,225.6,23.3,338.6,27.3c35.7,1.3,71.4,2.5,107.1,3.8
			c315.7-18.7,636.1-4.2,954.3-7.7v-13.4C934.3,801.1,466.3,826.9,0,808.9z"/>
	</g>
	<g opacity="0.1">
		<path fill="#005C7D" d="M834.5,657.8c-107.9,9-215.4,19.1-324.1,26.1c296.7-0.3,593.3-3.7,889.5-10.4V664
			c-101-6-204.3-6.1-306.7-6.1C1007.1,657.9,920.8,657.8,834.5,657.8z"/>
		<path fill="#005C7D" d="M0,534.1v14.8c287.6-10.7,577.2-7.6,866-6.8c178,0.5,356,0,534-1.4v-8.8c-408.1,0-816.2-0.1-1224.2-0.1
			C117.1,531.8,58.4,531.8,0,534.1z"/>
		<path fill="#005C7D" d="M113.1,682.4c-37.6-0.3-75.4-0.7-113.1-0.5v12.5c145.3,1.6,290.7,1.2,434.9-6.1
			c25.3-1.3,50.5-2.8,75.6-4.4C378,684.1,245.6,683.6,113.1,682.4z"/>
		<path fill="#005C7D" d="M0,606.3v15.2c23.4,0.2,46.8,0.2,70.1,0.1c443.3-0.2,886.6-0.3,1329.9-0.5v-16.8
			c-347.3,0.1-694.6,0.1-1041.9,0.2C238.7,604.6,119.3,604.6,0,606.3z"/>
		<path fill="#005C7D" d="M299.2,690.6c-58.9,2.5-117.1,7.1-175.3,11.7C82.6,705.5,41.3,708.8,0,712v10.8
			c278.2,0,556.3,0.1,834.5,0.1c80.7-6.8,161.6-13,243.4-17c107.1-5.3,215.3-6.8,322.1-12.5v-5.5c-293.1-0.1-586.2-0.3-879.3-0.4
			C446.8,687.5,372.7,687.4,299.2,690.6z"/>
		<path fill="#005C7D" d="M0,576c73.7,1.7,148,1.7,221.7,1.9c244.3,0.7,488.4,4.1,732.6,7.9c149.9-3.9,298.7-11.2,445.7-24.2V554
			c-466.7-0.9-933.3-1.9-1400-2.8V576z"/>
		<path fill="#005C7D" d="M954.3,585.7C638.6,594,318.1,587.6,0,589.2v5.9c465.7,10.6,933.7-0.9,1400,7.1v-2.6
			c-110.9-8.4-225.6-10.4-338.6-12.1C1025.7,586.8,990,586.3,954.3,585.7z"/>
	</g>
	<g opacity="0.3">
		<path fill="#005C7D" d="M834.5,684.7c-107.9,3.7-215.4,7.7-324.1,10.5c296.7-0.1,593.3-1.5,889.5-4.2v-3.9
			c-101-2.4-204.3-2.5-306.7-2.5C1007.1,684.7,920.8,684.7,834.5,684.7z"/>
		<path fill="#005C7D" d="M834.5,571.4c-107.9,3.7-215.4,7.7-324.1,10.5c296.7-0.1,593.3-1.5,889.5-4.2v-3.9
			c-101-2.4-204.3-2.5-306.7-2.5C1007.1,571.5,920.8,571.5,834.5,571.4z"/>
		<path fill="#005C7D" d="M0,634.7v6c287.6-4.3,577.2-3.1,866-2.8c178,0.2,356,0,534-0.6v-3.6c-408.1,0-816.2,0-1224.2-0.1
			C117.1,633.8,58.4,633.8,0,634.7z"/>
		<path fill="#005C7D" d="M0,694.4v5.1c145.3,0.7,290.7,0.5,434.9-2.5c25.3-0.5,50.5-1.1,75.6-1.8c-132.5,0.1-264.9-0.2-397.3-0.6
			C75.5,694.5,37.7,694.3,0,694.4z"/>
		<path fill="#005C7D" d="M0,663.8v6.1c23.4,0.1,46.8,0.1,70.1,0.1c443.3-0.1,886.6-0.1,1329.9-0.2v-6.8
			c-347.3,0-694.6,0.1-1041.9,0.1C238.7,663.2,119.3,663.2,0,663.8z"/>
		<path fill="#005C7D" d="M299.2,610.5c-58.9,1-117.1,2.9-175.3,4.7c-41.3,1.3-82.6,2.6-123.9,3.9v4.4c278.2,0,556.3,0,834.5,0.1
			c80.7-2.7,161.6-5.2,243.4-6.9c107.1-2.1,215.3-2.8,322.1-5.1v-2.2c-293.1-0.1-586.2-0.1-879.3-0.2
			C446.8,609.3,372.7,609.3,299.2,610.5z"/>
		<path fill="#005C7D" d="M0,651.6c73.7,0.7,148,0.7,221.7,0.8c244.3,0.3,488.4,1.7,732.6,3.2c149.9-1.6,298.7-4.5,445.7-9.8v-3
			c-466.7-0.4-933.3-0.7-1400-1.1V651.6z"/>
		<path fill="#005C7D" d="M0,568.7c73.7,0.7,148,0.7,221.7,0.8c244.3,0.3,488.4,1.7,732.6,3.2c149.9-1.6,298.7-4.5,445.7-9.8v-3
			c-466.7-0.4-933.3-0.7-1400-1.1V568.7z"/>
		<path fill="#005C7D" d="M954.3,655.5c-315.7,3.4-636.1,0.8-954.3,1.4v2.4c465.7,4.3,933.7-0.4,1400,2.8v-1.1
			c-110.9-3.4-225.6-4.2-338.6-4.9C1025.7,656,990,655.8,954.3,655.5z"/>
	</g>
	<g opacity="0.3">
		<path fill="#005C7D" d="M0,915.6c101,2.4,204.3,2.5,306.7,2.5c86.3,0,172.6,0,258.8,0c107.9-3.7,215.4-7.7,324.1-10.5
			C592.9,907.6,296.2,909,0,911.7V915.6z"/>
		<path fill="#005C7D" d="M534,964.8c-178-0.2-356,0-534,0.6v3.6c408.1,0,816.2,0,1224.2,0.1c58.6,0,117.4,0,175.8-0.9v-6
			C1112.4,966.4,822.8,965.1,534,964.8z"/>
		<path fill="#005C7D" d="M965.1,905.7c-25.3,0.5-50.5,1.1-75.6,1.8c132.5-0.1,264.9,0.2,397.3,0.6c37.6,0.1,75.4,0.3,113.1,0.2
			v-5.1C1254.7,902.6,1109.3,902.8,965.1,905.7z"/>
		<path fill="#005C7D" d="M0,932.9v6.8c347.3,0,694.6-0.1,1041.9-0.1c119.3,0,238.8,0,358.1-0.7v-6.1c-23.4-0.1-46.8-0.1-70.1-0.1
			C886.6,932.8,443.3,932.8,0,932.9z"/>
		<path fill="#005C7D" d="M322.1,898.6c-107.1,2.1-215.3,2.8-322.1,5.1v2.2c293.1,0.1,586.2,0.1,879.3,0.2c73.9,0,148,0,221.6-1.3
			c58.9-1,117.1-2.9,175.3-4.7c41.3-1.3,82.6-2.6,123.9-3.9v-4.4c-278.2,0-556.3,0-834.5-0.1C484.8,894.5,403.9,897,322.1,898.6z"/>
		<path fill="#005C7D" d="M445.7,947.2C295.8,948.8,147,951.7,0,957v3c466.7,0.4,933.3,0.7,1400,1.1v-10
			c-73.7-0.7-148-0.7-221.7-0.8C934,950.1,689.9,948.7,445.7,947.2z"/>
		<path fill="#005C7D" d="M0,940.5v1.1c110.9,3.4,225.6,4.2,338.6,4.9c35.7,0.2,71.4,0.5,107.1,0.7c315.7-3.4,636.1-0.8,954.3-1.4
			v-2.4C934.3,939.1,466.3,943.8,0,940.5z"/>
	</g>
	<g opacity="0.1">
		<path fill="#005C7D" d="M834.5,929.8c-107.9,9-215.4,19.1-324.1,26.1c296.7-0.3,593.3-3.7,889.5-10.4v-9.6
			c-101-6-204.3-6.1-306.7-6.1C1007.1,929.8,920.8,929.8,834.5,929.8z"/>
		<path fill="#005C7D" d="M0,806v14.8c287.6-10.7,577.2-7.6,866-6.8c178,0.5,356,0,534-1.4v-8.8c-408.1,0-816.2-0.1-1224.2-0.1
			C117.1,803.7,58.4,803.7,0,806z"/>
		<path fill="#005C7D" d="M113.1,954.4C75.5,954,37.7,953.7,0,953.8v12.5c145.3,1.6,290.7,1.2,434.9-6.1c25.3-1.3,50.5-2.8,75.6-4.4
			C378,956,245.6,955.5,113.1,954.4z"/>
		<path fill="#005C7D" d="M0,878.2v15.2c23.4,0.2,46.8,0.2,70.1,0.1c443.3-0.2,886.6-0.3,1329.9-0.5v-16.8
			c-347.3,0.1-694.6,0.1-1041.9,0.2C238.7,876.5,119.3,876.5,0,878.2z"/>
		<path fill="#005C7D" d="M299.2,777c-58.9,2.5-117.1,7.1-175.3,11.7c-41.3,3.2-82.6,6.5-123.9,9.7v10.8
			c278.2,0,556.3,0.1,834.5,0.1c80.7-6.8,161.6-13,243.4-17c107.1-5.3,215.3-6.8,322.1-12.5v-5.5c-293.1-0.1-586.2-0.3-879.3-0.4
			C446.8,773.9,372.7,773.9,299.2,777z"/>
		<path fill="#005C7D" d="M0,847.9c73.7,1.7,148,1.7,221.7,1.9c244.3,0.7,488.4,4.1,732.6,7.9c149.9-3.9,298.7-11.2,445.7-24.2v-7.5
			C933.3,825,466.7,824,0,823.1V847.9z"/>
		<path fill="#005C7D" d="M954.3,857.6c-315.7,8.3-636.1,1.9-954.3,3.4v5.9c465.7,10.6,933.7-0.9,1400,7.1v-2.6
			c-110.9-8.4-225.6-10.4-338.6-12.1C1025.7,858.8,990,858.2,954.3,857.6z"/>
	</g>
	<g>
		<g>
			<path opacity="0.2" fill="#EBE7E8" d="M673.2,234.2c-6.3,0-12.6,0-18.9,0C660.6,234.6,666.9,234.6,673.2,234.2z"/>
		</g>
		<g>
			<g>
				<rect x="489.6" y="350.1" fill="#002532" width="2.9" height="175.9"/>
				<polygon fill="#002532" points="411.9,549.3 516.3,549.3 551.1,526.4 402.4,526.4 				"/>
				<polygon fill="#002532" points="486.8,515 486.8,373.9 416,515 				"/>
				<polygon fill="#002532" points="496.3,515 537.3,515 496.3,374.8 				"/>
				<polygon fill="#002532" points="486.8,363.3 486.8,353.7 469.7,359.4 				"/>
			</g>
		</g>
		<rect x="489.6" y="350.1" fill="#002532" width="2.9" height="175.9"/>
		<g>
			<linearGradient id="SVGID_47_" gradientUnits="userSpaceOnUse" x1="436.0011" y1="438.0092" x2="528.0332" y2="438.0092">
				<stop  offset="3.225806e-002" style="stop-color:#FFFBD0"/>
				<stop  offset="0.457" style="stop-color:#F79026"/>
				<stop  offset="0.5182" style="stop-color:#F08C28"/>
				<stop  offset="0.5944" style="stop-color:#E4842F"/>
				<stop  offset="0.6786" style="stop-color:#CF7836"/>
				<stop  offset="0.7684" style="stop-color:#B3653B"/>
				<stop  offset="0.8629" style="stop-color:#8F4E39"/>
				<stop  offset="0.9597" style="stop-color:#68322D"/>
				<stop  offset="1" style="stop-color:#542324"/>
			</linearGradient>
			<rect x="489.6" y="350.1" fill="url(#SVGID_47_)" width="1.2" height="175.9"/>
			<g>
				<linearGradient id="SVGID_48_" gradientUnits="userSpaceOnUse" x1="436" y1="537.8727" x2="528.0339" y2="537.8727">
					<stop  offset="3.225806e-002" style="stop-color:#FFFBD0"/>
					<stop  offset="0.457" style="stop-color:#F79026"/>
					<stop  offset="0.5182" style="stop-color:#F08C28"/>
					<stop  offset="0.5944" style="stop-color:#E4842F"/>
					<stop  offset="0.6786" style="stop-color:#CF7836"/>
					<stop  offset="0.7684" style="stop-color:#B3653B"/>
					<stop  offset="0.8629" style="stop-color:#8F4E39"/>
					<stop  offset="0.9597" style="stop-color:#68322D"/>
					<stop  offset="1" style="stop-color:#542324"/>
				</linearGradient>
				<polygon fill="url(#SVGID_48_)" points="411.9,549.3 415.7,549.3 407.2,528.9 547.4,528.9 551.1,526.4 402.4,526.4 				"/>
				<linearGradient id="SVGID_49_" gradientUnits="userSpaceOnUse" x1="436" y1="444.4443" x2="528.0339" y2="444.4443">
					<stop  offset="3.225806e-002" style="stop-color:#FFFBD0"/>
					<stop  offset="0.457" style="stop-color:#F79026"/>
					<stop  offset="0.5182" style="stop-color:#F08C28"/>
					<stop  offset="0.5944" style="stop-color:#E4842F"/>
					<stop  offset="0.6786" style="stop-color:#CF7836"/>
					<stop  offset="0.7684" style="stop-color:#B3653B"/>
					<stop  offset="0.8629" style="stop-color:#8F4E39"/>
					<stop  offset="0.9597" style="stop-color:#68322D"/>
					<stop  offset="1" style="stop-color:#542324"/>
				</linearGradient>
				<polygon fill="url(#SVGID_49_)" points="422,515 486.8,386 486.8,373.9 416,515 				"/>
				<linearGradient id="SVGID_50_" gradientUnits="userSpaceOnUse" x1="436" y1="444.921" x2="528.0339" y2="444.921">
					<stop  offset="3.225806e-002" style="stop-color:#FFFBD0"/>
					<stop  offset="0.457" style="stop-color:#F79026"/>
					<stop  offset="0.5182" style="stop-color:#F08C28"/>
					<stop  offset="0.5944" style="stop-color:#E4842F"/>
					<stop  offset="0.6786" style="stop-color:#CF7836"/>
					<stop  offset="0.7684" style="stop-color:#B3653B"/>
					<stop  offset="0.8629" style="stop-color:#8F4E39"/>
					<stop  offset="0.9597" style="stop-color:#68322D"/>
					<stop  offset="1" style="stop-color:#542324"/>
				</linearGradient>
				<polygon fill="url(#SVGID_50_)" points="496.3,515 501.1,515 501.1,391.4 496.3,374.8 				"/>
				<linearGradient id="SVGID_51_" gradientUnits="userSpaceOnUse" x1="436" y1="357.3637" x2="528.0339" y2="357.3637">
					<stop  offset="3.225806e-002" style="stop-color:#FFFBD0"/>
					<stop  offset="0.457" style="stop-color:#F79026"/>
					<stop  offset="0.5182" style="stop-color:#F08C28"/>
					<stop  offset="0.5944" style="stop-color:#E4842F"/>
					<stop  offset="0.6786" style="stop-color:#CF7836"/>
					<stop  offset="0.7684" style="stop-color:#B3653B"/>
					<stop  offset="0.8629" style="stop-color:#8F4E39"/>
					<stop  offset="0.9597" style="stop-color:#68322D"/>
					<stop  offset="1" style="stop-color:#542324"/>
				</linearGradient>
				<polygon fill="url(#SVGID_51_)" points="476.9,361 486.8,357.7 486.8,353.7 469.7,359.4 				"/>
			</g>
		</g>
	</g>
</g>
</svg>
